<svg xmlns="http://www.w3.org/2000/svg" viewBox="0 0 32 32" width="100%" height="100%" shape-rendering="crispEdges">
  <rect width="32" height="32" fill="#5a3a4a"/>
  <!-- Pixel Heart -->
  <path d="M 6,10 H 12 V 8 H 14 V 10 H 16 V 8 H 18 V 10 H 24 V 16 H 22 V 18 H 20 V 20 H 18 V 22 H 16 V 24 H 14 V 22 H 12 V 20 H 10 V 18 H 8 V 16 H 6 Z" fill="#ff7b93"/>
  <path d="M 8,10 H 10 V 12 H 8 Z M 16,10 H 18 V 12 H 16 Z" fill="#ffb3c1"/>
  
  <!-- Pixel Music Note -->
  <path d="M 18,12 H 24 V 18 H 22 V 22 H 18 V 18 H 20 V 14 H 18 Z" fill="#ffffff"/>
  <path d="M 22,20 H 24 V 22 H 22 Z M 18,20 H 20 V 22 H 18 Z" fill="#ffffff"/>
</svg>
