<svg xmlns="http://www.w3.org/2000/svg" viewBox="0 0 32 32" width="100%" height="100%" shape-rendering="crispEdges">
  <rect width="32" height="32" fill="#201428"/>
  <!-- Stars -->
  <rect x="4" y="6" width="1" height="1" fill="#fff" opacity="0.8"/>
  <rect x="25" y="4" width="1" height="1" fill="#fff" opacity="0.9"/>
  <rect x="28" y="12" width="1" height="1" fill="#fff" opacity="0.7"/>
  <rect x="8" y="16" width="1" height="1" fill="#fff" opacity="0.8"/>
  <rect x="15" y="5" width="2" height="2" fill="#ffe066"/>
  <rect x="16" y="4" width="1" height="4" fill="#ffe066"/>
  <rect x="14" y="6" width="4" height="1" fill="#ffe066"/>
  
  <!-- Moon -->
  <path d="M 20,4 H 24 V 8 H 20 Z" fill="#fff" opacity="0.2"/>
  <path d="M 21,5 H 23 V 7 H 21 Z" fill="#fff" opacity="0.9"/>

  <!-- Pixel Couple silhouette & Hearts -->
  <path d="M 12,24 H 14 V 28 H 12 Z M 16,24 H 18 V 28 H 16 Z M 13,20 H 17 V 24 H 13 Z" fill="#4d325c"/>
  <path d="M 14,18 H 16 V 20 H 14 Z" fill="#ff7b93"/>
</svg>
